<?xml version="1.0" encoding="utf-8"?>
<!-- Generator: Adobe Illustrator 23.0.0, SVG Export Plug-In . SVG Version: 6.00 Build 0)  -->
<svg version="1.1" id="Layer_1" xmlns="http://www.w3.org/2000/svg" xmlns:xlink="http://www.w3.org/1999/xlink" x="0px" y="0px"
	 viewBox="0 0 749 210.3" style="enable-background:new 0 0 749 210.3;" xml:space="preserve">
<path d="M232.1,115L232.1,115L232.1,115L232.1,115z"/>
<g>
	<path d="M434.5,151.9c0.8-1.4,2.5-2.8,5.3-4.5c2.8-1.5,4-1.6,3.9-0.2c0,0.4-0.2,0.9-0.5,1.4c-3.8,8.1-9.5,16.1-16.9,24.2
		c-7.5,8.1-16,15.2-25.5,21.1c-9.6,6-19.4,9.7-29.6,11.2c-10.2,1.5-19.9-0.2-29.3-5.2c-3.8-2.3-7.1-5-10.1-8.4
		c-2.8-3.3-5.1-6.8-6.7-10.6s-2.8-8-3.7-12.5c-0.9-4.7-1.4-9.1-1.6-13.4c-0.2-4.4-0.1-9,0.3-13.9c0.4-4.9,0.9-9.3,1.5-13.2
		s1.4-8,2.3-12.2c2.3-11.1,5.2-21.9,8.7-32.6c3.6-10.6,8-21.2,13.2-31.6c5.2-10.4,11.1-20,17.5-28.9c1.5-2.1,3.1-4.2,4.8-6.2
		c1.7-2,3.6-4,5.9-6.2c2.3-2.1,4.5-4,6.6-5.5c2.2-1.6,4.5-2.8,6.9-3.7c2.5-0.9,4.8-1.2,7-1.1c2.3,0.2,4.5,1,6.7,2.7s4.3,4.1,6,7.2
		c2.2,3.9,3.8,8.5,4.7,13.6c0.9,5.2,1.3,10.2,1.2,15c-0.1,4.7-0.7,10.2-1.6,16.1c-0.9,6-1.9,11-2.9,15.1c-0.9,4.1-2.2,8.7-3.7,14
		c-0.5,1.6-2.2,3.3-5.2,5.2c-2.8,1.7-4.2,2.1-4.3,0.9c0-0.2,0-0.5,0.1-0.8c1.1-3.8,2-7,2.7-9.5c0.7-2.6,1.5-6.1,2.5-10.5
		c0.9-4.5,1.7-8.5,2.2-11.8c0.5-3.3,0.9-7.2,1-11.6c0.2-4.4,0.1-8.2-0.3-11.6c-0.4-3.3-1.2-6.7-2.4-10.2c-1.1-3.4-2.8-6.3-4.7-8.7
		c-8.9-11-19.8-6-32.6,15.1c-4.9,8.1-10.4,19.4-16.4,33.8c-17.3,41.3-22.5,74.8-15.9,100.5c1.8,6.7,4.4,12.3,7.9,16.9
		c3.5,4.6,7.4,7.9,11.9,9.9c4.4,2,9.2,3.1,14.5,3.4c5.2,0.3,10.5-0.3,16-1.7c5.4-1.4,10.8-3.5,16.1-6.2s10.4-5.8,14.9-9.4
		c4.6-3.6,8.7-7.6,12.5-12.1C429.4,161.2,432.3,156.6,434.5,151.9z"/>
	<path d="M486.9,133.1c0.9-0.9,2.4,0.2,4.3,3c2.1,3.3,2.7,5.6,1.7,6.9c-0.1,0.1-0.2,0.2-0.3,0.3c-4.9,4.2-9.3,6.6-13.4,7.6
		c-4,0.9-7.3-0.1-9.8-2.9c-2.6-2.9-3.8-7.8-3.8-14.6c0-0.4,0.2-1.8,0.5-4.1c0.3-2.3,0.6-4.3,0.8-5.9c0.2-1.6,0.1-2.8-0.1-3.8
		c-0.3-0.4-0.4-0.9-0.5-1.4c-0.6,0.5-1.2,0.9-2,1c-1,0.4-2.2,1.2-3.5,2.7c-1.2,1.4-2.3,2.8-3.1,4.1c-0.9,1.3-1.8,3-3,5.1
		c-1.1,2.1-1.9,3.4-2.2,3.8c-4.7,6.9-8.9,14.2-12.6,21.7c0,0-15.5,20.3-5.4,4.1c-1.4-2.2-2.3-3.8-2.4-4.7c-0.1-0.4-0.1-0.7-0.1-1
		v-0.1c0.1-1.7,0.4-3.4,0.9-5l19.4-120.2c0.3-1.9,1.5-1.6,3.5,0.8c2.2,2.7,3.3,4.8,3.4,6.7c0,0.1,0,0.2-0.1,0.3l-14,86.4
		c3.3-5.1,6.6-9.3,9.9-12.5c3.2-3.2,6-4.7,8.3-4.7c1.7,0,3.2,0.6,4.6,1.6c1.3,1.1,2.4,2.5,3.1,4.3c0.8,1.7,1.4,3.4,1.8,5
		c0.5,1.6,0.8,3.2,0.9,4.8c0.1,0.9,0,2.4-0.3,4.5c-0.3,2.2-0.6,4.2-0.9,6.2c-0.3,2-0.5,3.9-0.4,5.6c0.1,1.8,0.5,2.8,1.1,3.3
		c0.3,0,0.7,0,0.9,0.1c0.3,0,0.8-0.1,1.4-0.5c0.6-0.4,1.1-0.7,1.6-0.9s1.1-0.7,1.8-1.2c0.8-0.5,1.3-0.9,1.9-1.4
		c0.6-0.4,1.1-0.9,1.8-1.4c0.7-0.6,1.2-1,1.6-1.4c0.4-0.4,0.9-0.8,1.3-1.2C486.3,133.4,486.7,133.2,486.9,133.1z"/>
	<path d="M748.1,118.4c-1.4-0.9-3.5-0.1-6.2,2.4c-14,13.1-24.7,16.9-32.3,11.3c-1.2-0.9-2.3-2.2-3.2-3.6c5.3-3.5,10.2-8.2,14.5-14
		c4.3-5.7,6.6-11,6.9-16c0.3-6-2.8-7.1-9.5-3.6c-4.3,2.3-8.1,5.1-11.4,8.5c-2.4,2.4-4.6,4.9-6.4,7.6c-1.4,2-2.7,4.2-3.8,6.5
		c0.5-0.5,0.9-0.9,1.3-1.5c1.9-2,3.5-3.5,4.9-4.4c0.3-0.3,0.3,0.1,0,1.1c-1.3,4.4-4.2,9.8-8.5,16.3c-0.3,0.4-0.5,0.7-0.7,1
		c0.2,3.1,1.3,6,3.3,8.6c2.1,2.8,4.6,4.6,7.4,5.6c2.8,1,5.8,1.2,8.9,0.5c3.1-0.7,6.2-1.7,9.1-3c2.9-1.3,6-3.1,9.2-5.4
		c3.1-2.3,5.8-4.3,7.9-6s4.3-3.6,6.4-5.6l1.6-1.9C749.2,120.8,749.4,119.3,748.1,118.4z M708,111.1c0.7-0.9,1.5-2,2.5-3.1
		c0.9-1.2,2.2-2.4,3.6-3.4c1.4-1,2.5-1.3,3.2-0.8c1,0.9,0.8,2.8-0.9,5.5s-3.8,5.4-6.3,7.9c-2.5,2.5-4.4,4.1-5.6,4.8
		C704.5,118,705.6,114.4,708,111.1z"/>
	<path d="M703,111.6c-1.4,0.9-3,2.4-4.9,4.4c-0.5,0.5-0.9,0.9-1.3,1.5c0,0,0,0,0,0c-1.4,1.5-2.8,3.1-4.2,4.7
		c-1.8,2.1-3.5,4.2-5.2,6.2c-1.7,2-3.3,3.5-4.8,4.7c-1.5,1.1-2.8,1.6-3.7,1.5c-1-0.2-2-1.1-2.8-2.9c-0.9-1.8-1.4-4.3-1.9-7.3
		c-0.4-3-0.8-5.5-0.9-7.4s-0.4-4.2-0.6-6.9c0-0.9,0-1.4-0.1-1.7c0-0.9-0.5-2.4-1.5-4.5c-2.2-4.3-3.9-5.6-5.2-4
		c-7.7,9.8-15.9,19-24.5,27.8c0.5-9.4-0.5-18.7-2.9-28c-0.3-0.9-1.1-2.5-2.7-4.7c-1.5-2.2-2.7-2.8-3.3-1.9c-2.7,3-7.3,9.1-14,18
		c-0.3,0.4-1.7,2.8-4.4,6.9c-2.7,4.2-4.8,7.3-6.5,9.3c0.5-3,1.4-7.3,2.9-12.8c1.4-5.5,2.3-8.8,2.6-10c0.3-1.7-0.9-4.2-3.5-7.3
		c-1.9-2.2-2.9-2.8-3.1-1.9c-0.4,1.7-1,4.2-1.8,7.2c-0.8,3.1-1.5,5.9-2.1,8.5c-0.7,2.6-1.1,5.2-1.7,8.2c-0.5,2.9-0.7,5.7-0.7,8.5
		c0,0.3,0,0.6,0.1,0.9c0.9-0.9,2.1-1.6,3.3-2.3c1.6-0.9,2.5-0.9,2.5,0c-0.1,0.6-0.6,1.5-1.5,2.8c-1.3,2-2.5,3.7-3.4,5
		c0.1,0.3,0.1,0.5,0.2,0.8c0.5,1.3,1.2,2.8,2.4,4.6c1,1.7,2.1,2.5,3.1,2.3c0.9-0.1,2.1-0.6,3.1-1.5c1.1-0.9,2.1-1.9,2.8-2.9
		c0.8-0.9,1.6-2.2,2.7-3.7c1-1.5,1.7-2.4,1.9-2.8c1.8-2.3,4.6-6,8.3-11.1s6.6-9,8.6-11.7c0.9,9.5,0.1,18.8-2.1,28
		c-0.2,0.7,0.1,1.9,0.8,3.8c0.7,1.9,1.5,3.5,2.6,4.8c1,1.3,2,1.7,2.8,1c10.1-8.5,19.2-18,27.4-28.5c0.1,11.4,2,19.1,5.8,23.2
		c0.9,1,2.1,1.9,3.3,2.5c5.3,2.1,11.7-2.2,19-12.7c0-0.1,0-0.3,0-0.4c0-3.2,0.5-6.2,1.7-9.2c-1.2,3-1.7,6-1.6,9.1c0,0.1,0,0.3,0,0.4
		c0.2-0.4,0.5-0.7,0.7-1c4.6-6.6,7.4-12,8.6-16.3C703.2,111.8,703.2,111.4,703,111.6z"/>
	<path d="M65.1,167.5c-0.1,0.5-0.1,0.9,0,1.1c0.6,1.7,2.4,1.2,5.4-1.4c3.1-2.6,4.7-4.8,4.9-7l2.2-23.2l0.9-10.6l9-95.2
		c0-0.5,0-0.9-0.1-1.3c-0.5-1.6-2.3-1.1-5.4,1.4c-3,2.7-4.7,4.9-4.9,7l-8.5,89.8l-0.9,10.2L65.1,167.5z"/>
	<path d="M161.7,42.6c-0.9-5.9-2.7-11.2-4.9-16c-2.3-4.8-5.5-9.2-9.7-13.1c-4.2-3.9-9.2-6.9-15.1-9c-4.9-1.7-10.2-2.8-15.8-3.1
		c-5.5-0.3-10.8-0.1-16,0.7c-5,0.8-10.4,2.1-16,4c-5.6,1.9-10.7,4-15.6,6.3c-4.7,2.3-9.8,4.9-15,8.1S44,26.2,40,29
		s-8.2,5.7-12.5,8.9c-0.5,0.4-0.9,0.9-1.3,1.3c-2.1,2.2-2.9,4.1-2.6,6c0.4,1.8,2.2,1.6,5.2-0.8c4-2.8,7.7-5.5,11.3-8
		c3.5-2.5,7.6-5,12.3-7.8s9-5.1,13.3-7.1s8.8-3.8,13.8-5.5c4.9-1.7,9.7-2.9,14.2-3.6c4.6-0.8,9.3-1,14.2-0.8c4.9,0.2,9.6,1,14.1,2.4
		c4.8,1.6,9.2,3.8,13,6.8c3.8,2.9,6.8,6.4,9.1,10.1c2.3,3.8,4.2,7.9,5.6,12.5c1.4,4.6,2.3,9.2,2.6,14s0.3,9.6,0,14.4
		c-1.8,20.6-8.5,39.5-20.2,56.7l-7.8,10.5c-10.4,12.5-22.2,23.3-35.8,32.1c-6.3,4.1-12.6,7.9-19.1,11.3c-6.5,3.4-13.3,6.6-20.7,9.4
		c-7.3,2.8-14.8,5-22.5,6.4c-7.7,1.3-14.9,1.7-21.8,1.1c-0.2-0.1-0.5-0.1-0.7-0.1c0,0-3.5,1.1-3.5,5c0,3.9,3.5,5.9,3.5,5.9
		c0.6,0,1.2-0.1,1.8-0.1c4-0.4,7.4-0.9,10.2-1.3s6.1-1.2,10-2.2c20.3-5.1,39.3-13.2,57.2-24.3c17.8-11,33.5-24.6,47.1-40.5l8.3-10.6
		c11.7-16.3,19.3-34.4,23.1-54.1c0.9-5.8,1.6-11.5,1.7-17.1C163.1,54.1,162.7,48.4,161.7,42.6z"/>
	<path d="M603.4,126.2c-1.2,0.7-2.3,1.4-3.3,2.3c0,0,0,0,0,0c0,0,0,0,0,0c-1.1,1-2.2,2.2-3,3.5c-1.4,2.4-3.2,4.6-5.6,6.5
		c-4.4,3.5-6.7,2.6-7-2.8c-0.1-1.6,0.3-3.9,0.9-6.8c0.8-3,1.1-5.1,1.2-6.4c0.2-2.7-0.2-4.9-1.1-6.7c-0.9-1.9-1.9-3.2-3.1-4
		c-1.1-0.9-2.8-1.9-4.8-3.2c-2.1-1.3-3.7-2.6-4.8-3.6c8-11,9.3-20.1,3.8-27.2c-3.1-3.5-6.3-4.4-9.3-2.6c-3.1,1.8-5.8,4.7-8.1,8.7
		s-3.5,7.5-3.8,10.4c-0.6,6,0.9,11.5,4.5,16.4l-5,5.8l-7.6,8.8c-0.3,0.3-0.7,0.7-1.3,1.2c-0.7,0.6-1.1,1-1.6,1.5
		c-0.5,0.4-1,0.9-1.9,1.6c-0.8,0.7-1.4,1.1-2,1.5c-0.6,0.3-1.2,0.7-2,1.1c-0.8,0.4-1.4,0.6-2,0.5c-0.6-0.1-1.1-0.3-1.8-0.5
		c-0.4-0.3-0.8-0.6-1.1-1c-0.3-0.5-0.6-0.9-0.8-1.3c-0.2-0.5-0.4-1-0.5-1.8c-0.1-0.8-0.2-1.3-0.3-1.7c0-0.4-0.1-0.9-0.2-1.8
		c-0.1-0.9-0.1-1.3-0.1-1.5c-0.4-5-0.7-11.4-0.8-19.2v-0.1c0-0.2,0-0.3,0.1-0.4c0.3-1.8-0.9-4.3-3.5-7.3c-2-2.2-3-2.8-3.2-1.9
		c-0.4,2.1-0.9,4.2-1.6,6.5c-4.1-6.4-8.1-9.8-11.8-10.4c-4.1-0.6-8.8,1.9-14.2,7.4c-3.4,3.5-6.2,7.2-8.4,11.3s-3.6,8.5-4.4,13.2
		c-0.5,3.2-0.3,6.3,0.5,9.2c0.2,0,0.3,0,0.5,0c0.4,1.4,0.9,2.8,1.5,4.2c0.9,2,2.2,4,3.5,5.8c0,0,0,0,0,0c-0.1,0.1-0.2,0.2-0.2,0.2
		c0.5,0.6,0.9,1.2,1.5,1.8c2.2,2.5,4.5,3.7,6.7,3.8c3.1,0.1,6.4-1.2,9.8-4c3.4-2.8,6.5-5.8,9.2-9.1c1.2-1.6,2.5-3.4,3.6-5.2
		c0.2,2.7,0.7,5.2,1.3,7.8c2.8,10.2,12.3,7.9,28.6-6.8c0.3-0.3,0.4-0.4,0.5-0.5c0.2-0.2,0.4-0.4,0.6-0.6l0.1-0.1
		c0.2-0.3,0.5-0.5,0.7-0.8l11.2-12.9c0.8,0.6,1.6,1.1,2.8,1.8c1,0.7,2.1,1.1,2.9,1.6c0.9,0.5,1.8,0.9,2.8,1.5
		c0.9,0.6,1.7,1.3,2.4,2.2s1.1,1.8,1.5,2.8c0.3,2.3,0.4,4.1,0.3,5.2c-0.2,1.2-0.6,2.9-1.1,5.3c-0.6,2.4-0.9,4.1-0.9,5.1
		c-0.4,3.8,0.2,6.6,1.8,8.6c1.6,1.9,4.2,2.2,7.8,0.8c2.1-0.9,4.1-2,6.1-3.5c2-1.5,3.9-3.3,5.8-5.6c1.9-2.3,3.4-4.2,4.6-5.7
		c0.3-0.4,0.6-0.8,0.9-1.2c-0.1-0.5-0.1-1.1-0.2-1.7c0.1,0.6,0.2,1.2,0.4,1.8c0.9-1.3,2.1-3,3.4-5c0.9-1.3,1.4-2.3,1.5-2.8
		C605.9,125.3,605.1,125.3,603.4,126.2z M499.1,134.7c-1.7,0.9-3.2,1.4-4.5,1.5c-3.5,0.3-4.4-2.6-2.8-8.6c1.4-5.2,3.4-9.7,6-13.4
		c0.9-1.5,2.1-2.9,3.3-4.5c1.2-1.5,2.8-2.9,4.6-4.6c1.8-1.5,3.5-2.7,5.1-3.4s3.3-0.9,5-0.6c1.7,0.4,3.2,1.5,4.5,3.5
		c0.3,0.4,0.6,0.9,0.9,1.2C516.1,120.1,508.7,129.6,499.1,134.7z M568.1,98.6c-1.4-2.8-2.2-5.7-2.2-8.8c0-0.1,0.1-0.9,0.4-2.6
		c1,1.5,1.9,3.1,2.5,4.9C569.1,94.3,568.9,96.5,568.1,98.6z"/>
	<path d="M271.8,126.2c-2.7,1.4-4.7,3.3-6.3,5.8c-1.4,2.4-3.2,4.6-5.6,6.5c-4.4,3.5-6.7,2.6-7-2.8c-0.1-1.6,0.3-3.9,0.9-6.8
		c0.8-3,1.1-5.1,1.2-6.4c0.2-2.7-0.2-4.9-1.1-6.7c-0.9-1.9-1.9-3.2-3.1-4c-1.1-0.9-2.8-1.9-4.8-3.2c-2.1-1.3-3.7-2.6-4.8-3.6
		c8-11,9.3-20.1,3.8-27.2c-3.1-3.5-6.3-4.4-9.3-2.6c-3.1,1.8-5.8,4.7-8.1,8.7c-2.3,4-3.5,7.5-3.8,10.4c-0.6,6,0.9,11.5,4.5,16.4
		l-3.9,3.8l-7.2,7.1c-13.5,12.3-23.9,15.9-31.3,10.4c-1.2-0.9-2.3-2.2-3.2-3.6c5.3-3.5,10.2-8.2,14.5-14c4.3-5.7,6.6-11,6.9-16
		c0.3-6-2.8-7.1-9.5-3.6c-4.3,2.3-8.1,5.1-11.4,8.5c-2.4,2.4-4.6,4.9-6.4,7.6c-1.9,2.7-3.5,5.6-4.9,8.8c-1.4,3.2-2,6.5-1.9,9.8
		c0.2,3.3,1.3,6.4,3.4,9c2.1,2.8,4.6,4.6,7.4,5.6c2.8,1,5.8,1.2,8.9,0.5c3.1-0.7,6.2-1.7,9.1-3c2.9-1.3,6-3.1,9.2-5.4
		c3.1-2.3,5.8-4.3,7.9-6c2.1-1.7,4.3-3.6,6.4-5.6l9.8-9.8l-0.1-0.1c0,0,0,0,0.1-0.1v0.1c0.8,0.6,1.6,1.1,2.8,1.8
		c1,0.7,2.1,1.1,2.9,1.6c0.9,0.5,1.8,0.9,2.8,1.5s1.7,1.3,2.4,2.2c0.7,0.9,1.1,1.8,1.5,2.8c0.3,2.3,0.4,4.1,0.3,5.2
		c-0.2,1.2-0.6,2.9-1.1,5.3c-0.6,2.4-0.9,4.1-0.9,5.1c-0.4,3.8,0.2,6.6,1.8,8.6c1.6,1.9,4.2,2.2,7.8,0.8c2.1-0.9,4.1-2,6.1-3.5
		c2-1.5,3.9-3.3,5.8-5.6c1.9-2.3,3.4-4.2,4.6-5.7s2.6-3.6,4.3-6.3c0.9-1.3,1.4-2.3,1.5-2.8C274.3,125.4,273.4,125.4,271.8,126.2z
		 M184.3,111.1c0.7-0.9,1.5-2,2.5-3.1c0.9-1.2,2.2-2.4,3.6-3.4s2.5-1.3,3.2-0.8c1,0.9,0.8,2.8-0.9,5.5c-1.7,2.8-3.8,5.4-6.3,7.9
		c-2.5,2.5-4.4,4.1-5.6,4.8C180.9,118,182.1,114.4,184.3,111.1z M236.5,98.6c-1.4-2.8-2.2-5.7-2.2-8.8c0-0.1,0.1-0.9,0.4-2.6
		c1,1.5,1.9,3.1,2.5,4.9C237.4,94.3,237.2,96.5,236.5,98.6z"/>
</g>
</svg>
