<svg xmlns="http://www.w3.org/2000/svg" viewBox="0 0 260.14 80.61"><defs><style>.a{fill:#e6c320;}.b{fill:#d22027;fill-rule:evenodd;}</style></defs><title>log</title><path class="a" d="M255.3,19.89a16.4,16.4,0,0,0-13.18-5.57,10.86,10.86,0,0,0-1.14,0h-.32c-.36.07-.94.07-1.43.12a20.92,20.92,0,0,0-12.15,6.24c-3.75,3.51-5.58,9-5.55,16.4v.07c0,8.13,2.09,14,6.38,17.63a23,23,0,0,0,13.2,5.36c.88.08,1.77.14,2.65.14a38.56,38.56,0,0,0,4.38-.27c1.54-.22,3-.38,4.53-.71a12.13,12.13,0,0,0,2-.39,14.83,14.83,0,0,0,2-.61l.71-4.73a1.75,1.75,0,0,0-.44.17.71.71,0,0,0-.43.17c-1.14.33-2.5.8-3.84,1.15s-2.74.73-4.3,1a22.06,22.06,0,0,0-2.23.29c-.73,0-1.52.09-2.3.09a23.11,23.11,0,0,1-2.65-.19,17.56,17.56,0,0,1-9-4.27c-3.4-3-5.17-8.67-5.17-17l14.14,0,18.87,0a1.4,1.4,0,0,1,.11-.61v-.57c0-.26.06-.43.06-.68a3.76,3.76,0,0,0,0-.56A18.52,18.52,0,0,0,255.3,19.89Zm-.8,11.6-13.43,0h-13.5c.08-.63.25-1.36.37-2.16a8,8,0,0,1,.54-2.33,11.62,11.62,0,0,1,4-5.48c1.72-1.51,4.55-2.37,8.54-2.79.61-.09,1.21-.09,1.79-.12a11.44,11.44,0,0,1,8.52,3.09A10.87,10.87,0,0,1,254.5,30Z"/><path class="a" d="M135.49,16.85l.65,4.76c-.81-.18-1.87-.5-3.11-.76a22.33,22.33,0,0,0-3.92-.61,12.13,12.13,0,0,0-1.55-.19h-1.62A13,13,0,0,0,120,21.33a4.21,4.21,0,0,0-2.7,4.16,1.09,1.09,0,0,0,0,.3v.26c0,.08.15.13.15.26v.28a16.88,16.88,0,0,0,4.15,5.89,41.58,41.58,0,0,0,5,3.68,4.74,4.74,0,0,0,.69.49,5.32,5.32,0,0,0,.75.54,29.18,29.18,0,0,1,5.07,3.93,20.26,20.26,0,0,1,4.41,6.77V50c0,4.09-1.49,6.88-4.53,8.24a26.12,26.12,0,0,1-10.19,2.11c-.42,0-.86-.1-1.34-.1s-1,0-1.41,0c-1.59-.1-3.2-.35-4.69-.51s-2.78-.53-3.92-.77l-.7-4.92c.15.14.28.15.35.26a.27.27,0,0,1,.25.11c1,.4,2.37.75,3.91,1.19a24.76,24.76,0,0,0,4.64.94,8.71,8.71,0,0,0,1.57.1c.64,0,1.16.05,1.68.05a14.86,14.86,0,0,0,4.08-.51A7,7,0,0,0,130,54.75a10.53,10.53,0,0,0,1-1.08c.2-.4.51-.7.69-1.14s.27-.78.32-1a3.59,3.59,0,0,0,.11-1V50c-.36-2.31-2.1-4.65-5.18-7s-6.57-5.21-10.2-8.41c-.18-.1-.21-.23-.37-.29s-.18-.16-.19-.27a25.75,25.75,0,0,1-3.27-5.1,9.44,9.44,0,0,1-1.11-4.24c0-2.94,1.48-5.05,4.34-6.48a23.54,23.54,0,0,1,10.24-2.14,21.92,21.92,0,0,1,2.52.1c.82,0,1.65.05,2.64.09.58.06,1.29.17,2,.26s1.33.3,2,.41Z"/><path class="a" d="M152,7.08V16l12.42,0v4.2H152.05l.11,30.22c.2,2.27.77,3.85,1.79,4.86a5.59,5.59,0,0,0,3.85,1.5,12.42,12.42,0,0,0,2.44-.36,26.7,26.7,0,0,0,2.86-1,2.62,2.62,0,0,0,1-.43c.44-.18.92-.25,1.28-.37v3.3c-.28.64-1.21,1.19-2.66,1.56a28.77,28.77,0,0,1-5,.69h-.13a1.76,1.76,0,0,1-.46,0,2.36,2.36,0,0,1-.75,0,2.78,2.78,0,0,1-.78-.1,13.85,13.85,0,0,1-5.85-1.57,5.87,5.87,0,0,1-3-4.56l0-33.78h-5.5l-.05-4.11h5.41V7.71Z"/><path class="a" d="M167.35,16h6.06l14.5,39.13L203,15.9l6.12,0L187.24,68.1a8.94,8.94,0,0,1-.63,1.76c-.3.57-.63,1.15-1,1.81a23.09,23.09,0,0,1-5.16,6.13,12.28,12.28,0,0,1-8,2.81,14.41,14.41,0,0,1-3.39-.35,24.7,24.7,0,0,1-3.63-1.14l-.69-5.49a10.12,10.12,0,0,0,3.72,2,8.42,8.42,0,0,0,3.08.54,7.86,7.86,0,0,0,6.41-3.35,34.6,34.6,0,0,0,4.44-7.25c.47-.9.69-1.8,1.16-2.59.29-.79.67-1.51,1-2.28Z"/><polygon class="a" points="217.56 0.59 217.65 59.13 212.98 59.13 212.77 0.69 217.56 0.59"/><polygon class="a" points="0 1.3 6.21 1.26 6.32 55.64 34.53 55.52 34.53 59.67 0.23 59.74 0 1.3"/><path class="a" d="M103.39,20.4c-3.3-3.78-7.64-5.64-13.23-5.57H88.78a4.58,4.58,0,0,0-1.44.16,21.48,21.48,0,0,0-12.18,6.17c-3.82,3.51-5.64,9-5.64,16.28v.18c.07,8,2.18,14,6.5,17.66a23.15,23.15,0,0,0,13.16,5.4c1,0,1.82.08,2.74.08a33.13,33.13,0,0,0,4.29-.26c1.46-.19,3.06-.39,4.59-.73a10.08,10.08,0,0,0,1.93-.36c.66-.15,1.35-.47,2-.65l.58-4.71a3.6,3.6,0,0,1-.49.22.55.55,0,0,1-.24.07,40.28,40.28,0,0,1-3.91,1.17c-1.39.38-2.73.77-4.2,1.06-.79.05-1.51.17-2.36.27s-1.51.07-2.18.07a18.93,18.93,0,0,1-2.74-.17,17.89,17.89,0,0,1-8.94-4.22c-3.42-3-5.28-8.7-5.28-17H89.18l18.87-.07v-.65a1,1,0,0,0,.13-.58v-.63a2.06,2.06,0,0,0,.07-.63A18.42,18.42,0,0,0,103.39,20.4ZM102.55,32,89.18,32H75.69c.11-.69.18-1.38.29-2.17a13.76,13.76,0,0,1,.53-2.34,12.21,12.21,0,0,1,4-5.51c1.74-1.46,4.62-2.38,8.66-2.78a10.82,10.82,0,0,0,1.7-.18,11.9,11.9,0,0,1,8.51,3.16,11,11,0,0,1,3.21,8.34Z"/><polygon class="a" points="38.28 16.41 43.68 16.31 43.91 59.67 38.47 59.67 38.28 16.41"/><path class="a" d="M53.27,20.44H47.74V16.31h5.48v-7c0-3.25,1-5.53,3-6.89A15.4,15.4,0,0,1,62.94.15,7.26,7.26,0,0,0,64.22.08C64.62.08,65,0,65.41,0c.73,0,1.56.08,2.35.15s1.49.06,2.11.12,1,.08,1.46.08a4.26,4.26,0,0,0,1.18.12l.64,4a1.41,1.41,0,0,1-.62-.1H72c-1.12-.08-2.17-.29-3.19-.42s-2-.17-2.63-.17c-2.82,0-4.85.59-6,1.78a8.16,8.16,0,0,0-2.28,4.52v6.23l12.49-.06V20.4l-12.49,0,.15,39.15H53.32Z"/><path class="b" d="M40.84,12.78a4.72,4.72,0,0,0,4.59-4.72,4.64,4.64,0,0,0-9.27,0,4.68,4.68,0,0,0,4.68,4.72"/></svg>